PathFileType	4	(X/Y/Z)	C:\Users\Basilio\Documents\Thesis Gigler\squatting_fais\c3dfiles\041\SJ_pre5\markers_experimental.trc
DataRate	CameraRate	NumFrames	NumMarkers	Units	OrigDataRate	OrigDataStartFrame	OrigNumFrames
200.000000	200.000000	4	62	mm	200.000000	752	1505
Frame#	Time	FHD			LBHD			RBHD			C7			T10			CLAV			LSHO			LUUPA			LMUPA			LDUPA			LLEP			LMEP			LRAD			LUL			LRFIN			RSHO			RUPA1			RMUPA			RDUPA			RLEP			RMEP			RRAD			RUL			RUFIN			LASI			RASI			USACR			LSACR			RSACR			LTHI1			LTHI2			LTHI3			LTHI4			LLFC			LMFC			LTIB1			LTIB2			LTIB3			LTIB4			LLMAL			LMMAL			LHEE			LMT1			LMT2			LMT5			RTHI			RTHI2			RTHI3			RTHI4			RLFC			RMFC			RTIB1			RTIB2			RTIB3			RTIB4			RLMAL			RMMAL			RHEE			RMT1			RMT2			RMT5			*61			
		X1	Y1	Z1	X2	Y2	Z2	X3	Y3	Z3	X4	Y4	Z4	X5	Y5	Z5	X6	Y6	Z6	X7	Y7	Z7	X8	Y8	Z8	X9	Y9	Z9	X10	Y10	Z10	X11	Y11	Z11	X12	Y12	Z12	X13	Y13	Z13	X14	Y14	Z14	X15	Y15	Z15	X16	Y16	Z16	X17	Y17	Z17	X18	Y18	Z18	X19	Y19	Z19	X20	Y20	Z20	X21	Y21	Z21	X22	Y22	Z22	X23	Y23	Z23	X24	Y24	Z24	X25	Y25	Z25	X26	Y26	Z26	X27	Y27	Z27	X28	Y28	Z28	X29	Y29	Z29	X30	Y30	Z30	X31	Y31	Z31	X32	Y32	Z32	X33	Y33	Z33	X34	Y34	Z34	X35	Y35	Z35	X36	Y36	Z36	X37	Y37	Z37	X38	Y38	Z38	X39	Y39	Z39	X40	Y40	Z40	X41	Y41	Z41	X42	Y42	Z42	X43	Y43	Z43	X44	Y44	Z44	X45	Y45	Z45	X46	Y46	Z46	X47	Y47	Z47	X48	Y48	Z48	X49	Y49	Z49	X50	Y50	Z50	X51	Y51	Z51	X52	Y52	Z52	X53	Y53	Z53	X54	Y54	Z54	X55	Y55	Z55	X56	Y56	Z56	X57	Y57	Z57	X58	Y58	Z58	X59	Y59	Z59	X60	Y60	Z60	X61	Y61	Z61	X62	Y62	Z62	

753	3.76	-9.796324729919435	1270.1201171875	-945.0958251953127	-186.0503692626953	1210.09521484375	-1027.436157226563	-170.4090576171875	1211.494384765625	-873.777282714844	-247.1422119140626	1123.260986328125	-955.3385009765627	-463.9879150390626	914.6487426757815	-947.487731933594	-140.8253021240235	986.3081054687502	-959.6510009765627	-180.5225067138672	1073.598388671875	-1124.492431640625	-298.8524475097657	1014.93994140625	-1270.396484375	-315.2166748046876	969.1838989257815	-1272.631103515625	-349.3840942382813	995.5467529296877	-1315.432861328125	-391.7359619140626	971.0769653320315	-1340.585205078125	-460.8493041992189	990.3411254882815	-1283.158081054688	-478.8663635253907	794.4014282226565	-1155.352905273438	-499.9180603027345	746.9725952148439	-1210.699829101563	-450.2136230468751	751.7305908203126	-1118.562866210938	-151.5682983398438	1058.514038085938	-792.1811523437502	-241.8374786376954	974.2416992187502	-607.8441162109376	-233.9950714111329	925.747009277344	-621.6659545898439	-265.8566284179688	915.7551879882815	-573.9448242187501	-295.0099792480469	876.5090332031252	-556.9799194335939	-374.1734924316407	923.555358886719	-579.1084594726564	-468.7162170410157	776.661804199219	-725.6696166992189	-442.6368408203126	755.2973632812501	-779.7905273437502	-459.4595642089845	709.7450561523439	-686.1145019531251	-436.2009582519532	687.5188598632814	-1052.502319335938	-437.6505737304689	701.2908325195314	-847.607849121094	-561.5424804687501	839.3719482421877	-948.7993164062502	-592.3408203125001	827.9140625000002	-975.3547973632815	-590.8970336914064	825.6599121093752	-919.5222167968752	-514.0920410156251	596.3290405273439	-1163.471557617188	-429.7092285156251	587.8467407226564	-1178.621459960938	-403.9573974609376	625.6622314453126	-1164.975708007813	-399.6114501953126	535.4998168945314	-1186.223754882813	-249.3584899902344	457.5565185546876	-1204.360961914063	-225.783187866211	426.2182617187501	-1100.569213867188	-274.4177551269532	270.5112915039063	-1175.552612304688	-345.0893249511719	260.6587524414063	-1235.829223632813	-310.1850280761719	240.7498931884766	-1212.90283203125	-340.5612182617188	165.8155517578125	-1187.349853515625	-435.570281982422	102.8593368530274	-1231.548828125	-395.1534423828126	102.3838272094727	-1150.44580078125	-500.8341674804689	55.33395385742189	-1199.47412109375	-283.5154418945313	59.4539031982422	-1176.039306640625	-277.3949584960938	58.68618011474611	-1220.872314453125	-317.9851074218751	35.46439361572266	-1276.579345703125	-452.7029724121095	568.1729125976564	-730.5142211914064	-386.3844604492189	571.1481933593751	-723.1982421875001	-367.4693908691407	596.8989257812501	-730.7269897460939	-336.0005798339844	500.8982543945314	-719.8754882812501	-251.3301696777344	439.9606018066407	-711.9656982421876	-226.5988464355469	417.496795654297	-820.6700439453127	-271.9063720703126	282.6511840820313	-713.8272705078126	-381.1463623046876	249.1249694824219	-701.3269653320314	-338.4582824707032	228.3750915527344	-702.7000122070314	-339.2699890136719	175.6055908203125	-728.0390014648439	-439.726776123047	94.54677581787111	-712.2989501953126	-405.1732482910157	99.89906311035159	-791.4807128906252	-502.1967773437501	49.99450683593751	-760.1935424804689	-283.2593994140626	52.69649505615236	-749.7481079101564	-285.9058837890626	57.48843383789064	-697.7285766601564	-333.4226684570313	37.42546463012696	-651.6654663085939	-4216.705566406251	853.0852050781252	-3944.761230468751	
754	3.765	-9.623576164245607	1269.945434570313	-944.9786376953127	-185.9945068359375	1210.045654296875	-1027.30078125	-170.178451538086	1211.442016601563	-873.6984863281252	-247.1062011718751	1123.227783203125	-955.257507324219	-463.9805603027345	914.6990356445315	-947.4927368164065	-140.6995849609375	986.2805175781252	-959.5996093750002	-180.4493103027344	1073.598754882813	-1124.379028320313	-298.7723999023438	1014.979675292969	-1270.34423828125	-315.1174011230469	969.2042236328127	-1272.684204101563	-349.2949829101563	995.6065063476565	-1315.349853515625	-391.7017517089845	971.0689086914065	-1340.516357421875	-460.7982788085939	990.4339599609377	-1283.116577148438	-478.862518310547	794.474792480469	-1155.360473632813	-499.9343872070314	746.9883422851564	-1210.693359375	-450.1065673828126	751.8040771484376	-1118.564819335938	-151.5374145507813	1058.438598632813	-792.078552246094	-241.8486633300782	974.1616821289065	-607.8274536132814	-234.0787658691407	925.7051391601565	-621.6188354492189	-265.9555358886719	915.625427246094	-573.8170166015626	-295.0483093261719	876.3809814453127	-556.8795776367189	-374.1350708007813	923.4455566406252	-579.0535888671876	-468.751922607422	776.6417236328127	-725.6822509765626	-442.7773437500001	755.0661010742189	-779.7647705078127	-459.5350036621095	709.7483520507814	-686.0542602539064	-435.9864501953126	687.7454833984376	-1052.516723632813	-437.6467590332032	701.2938232421876	-847.6003417968752	-561.5516357421876	839.4114379882815	-948.7563476562502	-592.3407592773439	827.9420166015627	-975.390319824219	-590.9008789062501	825.6019287109377	-919.4934692382815	-514.1127319335939	596.3574218750001	-1163.513061523438	-429.7070617675782	587.8651733398439	-1178.59130859375	-403.9840087890626	625.6950683593751	-1164.986572265625	-399.621795654297	535.5489501953126	-1186.26220703125	-249.3009033203126	457.5577392578126	-1204.373168945313	-225.6953430175782	426.3198242187501	-1100.526611328125	-274.4107055664063	270.5607299804688	-1175.57763671875	-345.1030578613282	260.6837768554688	-1235.824340820313	-310.4353637695313	240.8531341552735	-1212.832275390625	-340.5735473632813	165.80908203125	-1187.333129882813	-435.5683593750001	102.8715744018555	-1231.597778320313	-395.1480407714845	102.3914413452149	-1150.449829101563	-500.8374328613282	55.36825180053712	-1199.47705078125	-283.6246337890626	59.4220542907715	-1176.047729492188	-277.3848266601563	58.75067138671876	-1220.884643554688	-318.2679443359376	35.75238800048829	-1276.60791015625	-452.7209472656251	568.1757202148439	-730.4968261718751	-386.417449951172	571.1335449218751	-723.1893920898439	-367.5226745605469	596.8766479492189	-730.7150878906251	-336.0384216308594	500.8809204101564	-719.8659667968751	-251.3667907714844	439.9602355957032	-711.9719238281251	-226.6382446289063	417.5480957031251	-820.6643066406252	-271.9533386230469	282.6941528320313	-713.7939453125001	-381.1926574707032	249.158432006836	-701.3512573242189	-338.5111999511719	228.3770141601563	-702.6603393554689	-339.2631225585938	175.5755615234375	-728.0494384765626	-439.721160888672	94.55234527587892	-712.3018798828126	-405.1495971679689	99.8859786987305	-791.4752197265627	-502.1802673339845	49.97605514526369	-760.1872558593751	-283.2424621582032	52.71872329711915	-749.7265014648439	-285.9276428222657	57.48268127441408	-697.7399902343751	-333.4626159667969	37.41858673095704	-651.6416015625001	-4216.691894531251	853.1323242187502	-3944.754150390626	
755	3.77	-9.340119361877443	1269.77001953125	-944.9729003906252	-185.7854461669922	1209.950805664063	-1027.182739257813	-170.0868682861328	1211.402954101563	-873.5620727539065	-247.0361328125001	1123.177734375	-955.194274902344	-464.0067749023439	914.7073364257815	-947.4705810546877	-140.6204528808594	986.1762695312502	-959.4874267578127	-180.3545989990235	1073.590942382813	-1124.300537109375	-298.7633361816407	1015.012573242188	-1270.294189453125	-315.0070190429688	969.2066650390627	-1272.606201171875	-349.1792602539063	995.6296386718752	-1315.33154296875	-391.7198486328126	971.152038574219	-1340.479858398438	-460.732391357422	990.508483886719	-1283.059692382813	-478.8854064941407	794.482116699219	-1155.33056640625	-499.9681091308595	747.0598754882814	-1210.7001953125	-450.1374816894532	751.9110107421876	-1118.586303710938	-151.5669403076172	1058.363525390625	-791.986022949219	-242.0095825195313	974.088317871094	-608.0093383789064	-234.0525360107422	925.679382324219	-621.5937500000001	-266.0296020507813	915.5218505859377	-573.7630615234376	-295.0553588867188	876.2918090820315	-556.8697509765626	-374.1630859375001	923.3927001953127	-578.9885864257814	-468.7480773925782	776.644470214844	-725.6935424804689	-442.8756713867189	755.1812744140626	-779.7422485351565	-459.5825805664064	709.7255249023439	-686.0386352539064	-435.9994201660157	687.7189941406251	-1052.524536132813	-437.6505737304689	701.2908325195314	-847.607849121094	-561.5426025390626	839.3886718750002	-948.7556152343752	-592.3361206054689	827.9702148437502	-975.3880615234377	-590.8985595703126	825.6219482421877	-919.507507324219	-514.0896606445314	596.4041137695314	-1163.540771484375	-429.7789306640626	587.8499755859376	-1178.64794921875	-404.022674560547	625.7265014648439	-1165.007934570313	-399.6549682617189	535.5289916992189	-1186.240234375	-249.3903808593751	457.5653076171876	-1204.387573242188	-225.6920166015626	426.3294982910157	-1100.5283203125	-274.4334106445313	270.5815124511719	-1175.654296875	-345.1149902343751	260.6864929199219	-1235.82373046875	-310.0883483886719	240.476547241211	-1212.853149414063	-340.5865173339844	165.8059997558594	-1187.330810546875	-435.5892028808595	102.8655624389649	-1231.588989257813	-395.1411437988282	102.3860244750977	-1150.4306640625	-500.8523864746095	55.38435363769533	-1199.471923828125	-283.6179504394532	59.42201995849611	-1176.087646484375	-277.3700866699219	58.77816772460939	-1220.89892578125	-317.9338684082032	35.45489120483399	-1276.578369140625	-452.7623291015626	568.1832275390626	-730.5023193359376	-386.422088623047	571.1178588867189	-723.1800537109376	-367.5730895996094	596.8833007812501	-730.6767578125001	-336.0412902832032	500.8889465332032	-719.8700561523439	-251.3972778320313	439.9353027343751	-711.9566650390626	-226.6204376220704	417.5611572265626	-820.6654052734377	-272.0189514160157	282.7472534179688	-713.8095703125001	-381.2542419433594	249.1612396240235	-701.3653564453126	-338.5895996093751	228.3970031738282	-702.7059936523439	-339.2186279296876	175.5992889404297	-728.0717773437501	-439.7394409179689	94.54493713378908	-712.3119506835939	-405.1921386718751	99.879508972168	-791.4675903320315	-502.2246704101564	50.0016555786133	-760.2042846679689	-283.3030090332032	52.75939178466798	-749.7426757812501	-285.9319458007813	57.4750099182129	-697.7654418945314	-333.4407653808594	37.39018249511719	-651.6516113281251	-4217.063964843751	853.2156982421877	-3944.625000000001	
756	3.775	-9.223860740661623	1269.666259765625	-944.886413574219	-185.7516479492188	1209.83935546875	-1027.056030273438	-169.8836059570313	1211.335693359375	-873.3877563476565	-246.9906768798829	1123.179077148438	-955.1293945312502	-463.9065551757814	914.6999511718752	-947.462829589844	-140.5710601806641	986.089050292969	-959.4323730468752	-180.3177185058594	1073.56005859375	-1124.20947265625	-298.6888427734376	1015.031127929688	-1270.201538085938	-315.0300598144532	969.2361450195315	-1272.578002929688	-349.1802368164063	995.6904907226565	-1315.231201171875	-391.6101379394532	971.1629028320315	-1340.413696289063	-460.6507568359376	990.533386230469	-1283.067749023438	-478.9407043457032	794.5418090820315	-1155.313110351563	-499.9404296875001	747.0692138671876	-1210.69775390625	-450.1759338378907	751.9758911132814	-1118.543334960938	-151.5194396972657	1058.310668945313	-791.9253540039065	-242.0816192626954	973.998474121094	-607.9447021484376	-234.1196746826172	925.5931396484377	-621.5098876953126	-265.9964599609376	915.4447021484377	-573.7247314453126	-295.1095275878907	876.1707153320315	-556.7783813476564	-374.1770935058594	923.3482055664065	-578.9276123046876	-468.6857299804689	776.5859985351565	-725.6641235351564	-442.9567260742189	755.1627807617189	-779.764587402344	-459.6364135742189	709.7090454101564	-686.0105590820314	-435.936004638672	687.7150268554689	-1052.416870117188	-437.609344482422	701.3143310546876	-847.4702758789065	-561.5933227539064	839.424011230469	-948.679626464844	-592.3646240234376	827.9671630859377	-975.3928222656252	-590.8501586914064	825.6436157226565	-919.5019531250002	-514.1112670898439	596.4599609375001	-1163.559936523438	-429.7394104003907	587.9194335937501	-1178.639892578125	-404.0412902832032	625.7547607421876	-1165.01123046875	-399.6544189453126	535.6049194335939	-1186.286743164063	-249.4319763183594	457.629364013672	-1204.410766601563	-225.7147369384766	426.3830871582032	-1100.588012695313	-274.4835815429688	270.5802612304688	-1175.643188476563	-345.0825500488282	260.6317138671876	-1235.837890625	-310.0666809082032	240.5021057128907	-1212.875244140625	-340.5886535644532	165.8616180419922	-1187.333862304688	-435.5843811035157	102.8613052368164	-1231.61083984375	-395.1231384277345	102.3805618286133	-1150.453247070313	-500.549530029297	54.98027801513673	-1199.552368164063	-283.3186950683594	59.1786460876465	-1176.089721679688	-277.3309631347657	58.79764556884767	-1220.889770507813	-318.2483520507813	35.73767089843751	-1276.606323242188	-452.7815551757814	568.1729125976564	-730.5567626953126	-386.4867553710939	571.1565551757814	-723.1519165039064	-367.6531677246094	596.8839111328126	-730.6832885742189	-336.0851440429688	500.8908691406251	-719.8988037109376	-251.4349822998047	439.9231262207032	-711.9416503906251	-226.6179351806641	417.5994873046876	-820.662780761719	-272.0109252929688	282.7654113769532	-713.7837524414064	-381.2301635742188	249.1856994628907	-701.3757934570314	-338.6168212890626	228.3977355957032	-702.6712036132814	-339.2725219726563	175.5537261962891	-728.0497436523439	-439.7322387695314	94.57236480712892	-712.3092651367189	-405.1666259765626	99.89388275146487	-791.4583740234377	-502.2256469726564	49.99510955810548	-760.1994018554689	-283.2838134765626	52.74841308593751	-749.7441406250001	-285.9259643554688	57.48811721801759	-697.7447509765626	-333.4468078613282	37.36455917358399	-651.6447143554689	-4217.017089843751	853.1726074218752	-3944.790039062501	
